<?xml version="1.0" encoding="utf-8"?>
<!-- Generator: Adobe Illustrator 23.0.3, SVG Export Plug-In . SVG Version: 6.00 Build 0)  -->
<svg version="1.1" id="Layer_1" focusable="false" xmlns="http://www.w3.org/2000/svg" xmlns:xlink="http://www.w3.org/1999/xlink"
	 x="0px" y="0px" viewBox="0 0 384 512" style="enable-background:new 0 0 384 512;" xml:space="preserve">
<style type="text/css">
	.st0{fill:#0065FC;}
</style>
<path class="st0" d="M134.2,91.9c0-35.5,25.9-64.2,57.8-64.2s57.8,28.7,57.8,64.2S224,156.1,192,156.1S134.2,127.4,134.2,91.9z
	 M338.7,93.2c-10-11.1-26.4-11.1-36.4,0l-69.6,77.2h-81.5L81.7,93.2c-10-11.1-26.4-11.1-36.4,0s-10,29.2,0,40.4l76,84.3v237.8
	c0,15.8,11.5,28.5,25.7,28.5h12.9c14.2,0,25.7-12.7,25.7-28.5v-99.9h12.9v99.9c0,15.8,11.5,28.5,25.7,28.5H237
	c14.2,0,25.7-12.7,25.7-28.5V217.9l76-84.3C348.8,122.3,348.8,104.3,338.7,93.2z"/>
</svg>
