<?xml version="1.0" encoding="utf-8"?>
<!-- Generator: Adobe Illustrator 23.0.3, SVG Export Plug-In . SVG Version: 6.00 Build 0)  -->
<svg version="1.1" id="Layer_1" focusable="false" xmlns="http://www.w3.org/2000/svg" xmlns:xlink="http://www.w3.org/1999/xlink"
	 x="0px" y="0px" viewBox="0 0 576 512" style="enable-background:new 0 0 576 512;" xml:space="preserve">
<style type="text/css">
	.st0{fill:#0065FC;}
</style>
<path class="st0" d="M292.7,214.8l136.7,47.6v194.4c0,7.8-6.6,14.2-14.6,14.2h-58.4c-8,0-14.6-6.4-14.6-14.2v-99.6H195.9v99.6
	c0,7.8-6.6,14.2-14.6,14.2H123c-8,0-14.6-6.4-14.6-14.2V266.5C74.4,254.8,50,223.4,50,186.3c0-15.7,13-28.5,29.2-28.5
	s29.2,12.7,29.2,28.5s13,28.5,29.2,28.5H292.7z M517,115.2v28.5c0,31.4-26.2,56.9-58.4,56.9h-29.2v31.7l-116.8-40.7V58.2
	c0-12.6,15.7-19,24.9-10.1l24.9,24.3h48.9c9.9,0,21.7,7,26.1,15.7l6.6,12.7h58.4C510.4,100.9,517,107.4,517,115.2z M414.8,115.2
	c0-7.8-6.6-14.2-14.6-14.2s-14.6,6.4-14.6,14.2s6.6,14.2,14.6,14.2S414.8,123,414.8,115.2z"/>
</svg>
