<?xml version="1.0" encoding="utf-8"?>
<!-- Generator: Adobe Illustrator 23.0.3, SVG Export Plug-In . SVG Version: 6.00 Build 0)  -->
<svg version="1.1" id="Layer_1" focusable="false" xmlns="http://www.w3.org/2000/svg" xmlns:xlink="http://www.w3.org/1999/xlink"
	 x="0px" y="0px" viewBox="0 0 640 512" style="enable-background:new 0 0 640 512;" xml:space="preserve">
<style type="text/css">
	.st0{fill:#0065FC;}
</style>
<path class="st0" d="M513.4,72.6c-26.1-15-52.2-20.6-78.3-20.6c-82.8,0-165.6,57.2-248.3,57.2c-20.7,0-41.5-3.6-62.2-12.6
	c-2.3-1-4.6-1.5-6.9-1.5c-11.6,0-21.6,12.2-21.6,29.2v291.1c0,11.6,4.9,22.6,12.7,27.1c26.1,15,52.2,20.6,78.3,20.6
	c82.8,0,165.6-57.2,248.3-57.2c20.7,0,41.5,3.6,62.2,12.6c2.3,1,4.6,1.5,6.9,1.5c11.6,0,21.6-12.2,21.6-29.2V99.6
	C526.1,88.1,521.2,77,513.4,72.6L513.4,72.6z M128.3,143.9c13.5,4.6,27.7,7,42.2,8.2c-4,27-21.3,47.2-42.2,47.2V143.9z M128.3,405.4
	v-43.9c23.1,0,41.8,25,42.8,56.3C155.9,416.2,141.8,412.1,128.3,405.4z M311,345.6c-29.7,0-53.7-39.4-53.7-88.1s24-88.1,53.7-88.1
	s53.7,39.4,53.7,88.1S340.7,345.6,311,345.6z M493.8,371.1c-11.7-4-24-6.3-36.5-7.7c4-23.9,18.5-42.1,36.5-45.2V371.1z M493.8,154.5
	c-20.7-3.6-36.9-27.2-37.5-56.5c13.1,2,25.6,5.7,37.5,11.7V154.5z"/>
</svg>
