<?xml version="1.0" encoding="utf-8"?>
<!-- Generator: Adobe Illustrator 23.0.3, SVG Export Plug-In . SVG Version: 6.00 Build 0)  -->
<svg version="1.1" id="Layer_1" focusable="false" xmlns="http://www.w3.org/2000/svg" xmlns:xlink="http://www.w3.org/1999/xlink"
	 x="0px" y="0px" viewBox="0 0 640 512" style="enable-background:new 0 0 640 512;" xml:space="preserve">
<style type="text/css">
	.st0{fill:#0065FC;}
</style>
<path class="st0" d="M539.3,54.5C511.1,38.2,482.9,32,454.7,32c-89.5,0-179,62.3-268.5,62.3c-22.4,0-44.9-3.9-67.3-13.7
	c-2.5-1.1-5-1.6-7.5-1.6C98.9,79,88,92.3,88,110.8v317.3c0,12.6,5.3,24.6,13.7,29.5c28.2,16.3,56.4,22.5,84.6,22.5
	c89.5,0,179-62.4,268.5-62.4c22.4,0,44.9,3.9,67.3,13.7c2.5,1.1,5,1.6,7.5,1.6c12.5,0,23.4-13.3,23.4-31.8V83.9
	C553,71.3,547.7,59.3,539.3,54.5L539.3,54.5z M122.9,132.2c14.6,5,29.9,7.6,45.6,8.9c-4.3,29.4-23,51.5-45.6,51.5V132.2z
	 M122.9,417.2v-47.8c25,0,45.2,27.3,46.3,61.4C152.8,429,137.5,424.5,122.9,417.2z M320.5,352c-32.1,0-58.1-43-58.1-96
	c0-53,26-96,58.1-96s58.1,43,58.1,96C378.6,309,352.6,352,320.5,352z M518.1,379.8c-12.7-4.4-25.9-6.9-39.5-8.4
	c4.3-26.1,20-45.9,39.5-49.3V379.8z M518.1,143.7c-22.4-3.9-39.9-29.7-40.5-61.6c14.2,2.2,27.7,6.2,40.5,12.7V143.7z"/>
</svg>
