<?xml version="1.0" encoding="utf-8"?>
<!-- Generator: Adobe Illustrator 23.0.3, SVG Export Plug-In . SVG Version: 6.00 Build 0)  -->
<svg version="1.1" id="Layer_1" focusable="false" xmlns="http://www.w3.org/2000/svg" xmlns:xlink="http://www.w3.org/1999/xlink"
	 x="0px" y="0px" viewBox="0 0 512 512" style="enable-background:new 0 0 512 512;" xml:space="preserve">
<style type="text/css">
	.st0{fill:#FFFFFF;}
</style>
<path class="st0" d="M359.4,277.3l-37.2-37.9c-1.7-1.7-4-2.6-6.3-2.6h-6.1c10.3-13.4,16.4-30.3,16.4-48.7c0-43.7-34.7-79-77.6-79
	S171,144.4,171,188s34.7,79,77.6,79c18,0,34.6-6.3,47.8-16.7v6.2c0,2.5,1,4.7,2.6,6.4l37.2,37.9c3.5,3.6,9.2,3.6,12.7,0l10.5-10.8
	C362.9,286.6,362.9,280.8,359.4,277.3z M248.6,236.6c-26.4,0-47.8-21.7-47.8-48.7c0-26.9,21.3-48.7,47.8-48.7
	c26.4,0,47.8,21.7,47.8,48.7C296.4,214.9,275.1,236.6,248.6,236.6z"/>
</svg>
