<?xml version="1.0" encoding="utf-8"?>
<!-- Generator: Adobe Illustrator 23.0.3, SVG Export Plug-In . SVG Version: 6.00 Build 0)  -->
<svg version="1.1" id="Layer_1" focusable="false" xmlns="http://www.w3.org/2000/svg" xmlns:xlink="http://www.w3.org/1999/xlink"
	 x="0px" y="0px" viewBox="0 0 512 512" style="enable-background:new 0 0 512 512;" xml:space="preserve">
<style type="text/css">
	.st0{fill:#FFFFFF;}
</style>
<path class="st0" d="M379.1,339.7L332.2,295c-2.1-2-5-3.1-8-3.1h-7.7c13-15.8,20.7-35.7,20.7-57.4c0-51.5-43.8-93.2-97.9-93.2
	s-97.9,41.7-97.9,93.2s43.8,93.2,97.9,93.2c22.7,0,43.6-7.4,60.3-19.7v7.3c0,2.9,1.2,5.6,3.3,7.6l46.9,44.7c4.4,4.2,11.6,4.2,16,0
	l13.3-12.7C383.5,350.7,383.5,343.9,379.1,339.7z M239.3,291.8c-33.3,0-60.3-25.6-60.3-57.4c0-31.7,26.9-57.4,60.3-57.4
	c33.3,0,60.3,25.6,60.3,57.4C299.6,266.2,272.7,291.8,239.3,291.8z"/>
</svg>
